<?xml version="1.0" encoding="UTF-8"?>
<svg width="121px" height="71px" viewBox="0 0 121 71" version="1.1" xmlns="http://www.w3.org/2000/svg" xmlns:xlink="http://www.w3.org/1999/xlink">
    <title>Slice 1</title>
    <defs>
        <linearGradient x1="96.9999995%" y1="0.01%" x2="-5.83333421e-06%" y2="0.01%" id="linearGradient-1">
            <stop stop-color="#B0936D" stop-opacity="0" offset="0%"></stop>
            <stop stop-color="#B0936D" offset="34.8958%"></stop>
            <stop stop-color="#B0936D" offset="65.625%"></stop>
            <stop stop-color="#B0936D" stop-opacity="0" offset="100%"></stop>
        </linearGradient>
        <linearGradient x1="3.00000142%" y1="99.99%" x2="100%" y2="99.99%" id="linearGradient-2">
            <stop stop-color="#B0936D" stop-opacity="0" offset="0%"></stop>
            <stop stop-color="#B0936D" offset="34.8958%"></stop>
            <stop stop-color="#B0936D" offset="65.625%"></stop>
            <stop stop-color="#B0936D" stop-opacity="0" offset="100%"></stop>
        </linearGradient>
    </defs>
    <g id="Page-1" stroke="none" stroke-width="1" fill="none" fill-rule="evenodd">
        <g id="all_BC_games">
            <polygon id="Path" fill="url(#linearGradient-1)" fill-rule="nonzero" points="0.606018 56.6095 120.606 56.6095 120.606 55.6095 0.606018 55.6095"></polygon>
            <polyline id="Path" stroke="#B0936D" points="67.6059 56.1259 61.3273 62.4045 55.0487 56.1259"></polyline>
            <polyline id="Path" stroke="#B0936D" points="74.606 56.0392 60.606 70.0392 46.606 56.0392"></polyline>
            <polygon id="Path" fill="url(#linearGradient-2)" fill-rule="nonzero" points="120.606 14.2957 0.605957 14.2957 0.605957 15.2957 120.606 15.2957"></polygon>
            <polyline id="Path" stroke="#B0936D" points="54.606 14.7793 60.8846 8.50073 67.1632 14.7793"></polyline>
            <polyline id="Path" stroke="#B0936D" points="46.606 14.866 60.606 0.866028 74.606 14.866"></polyline>
            <path d="M16.6531,31.5105 L13.4256,31.5105 L12.5857,33.3416 L11.3602,33.3416 L15.0906,25.3289 L18.6893,33.3416 L17.4441,33.3416 L16.6531,31.5105 Z M16.1893,30.4412 L15.0711,27.8777 L13.8992,30.4412 L16.1893,30.4412 Z M21.7742,25.8025 L21.7742,32.2722 L23.991,32.2722 L23.991,33.3416 L20.6365,33.3416 L20.6365,25.8025 L21.7742,25.8025 Z M27.2078,25.8025 L27.2078,32.2722 L29.4246,32.2722 L29.4246,33.3416 L26.0701,33.3416 L26.0701,25.8025 L27.2078,25.8025 Z M35.5896,33.3416 L35.5896,25.8025 L36.7225,25.8025 C37.227,25.8025 37.629,25.8416 37.9285,25.9197 C38.2312,25.9978 38.4868,26.1296 38.6951,26.3152 C38.9067,26.5072 39.0743,26.7465 39.198,27.033 C39.325,27.3227 39.3885,27.6156 39.3885,27.9119 C39.3885,28.4522 39.1818,28.9096 38.7684,29.2839 C39.1687,29.4207 39.4845,29.6599 39.7156,30.0017 C39.95,30.3403 40.0672,30.7341 40.0672,31.1833 C40.0672,31.7725 39.8589,32.2706 39.4422,32.6775 C39.1915,32.9281 38.91,33.1023 38.5975,33.2 C38.2557,33.2944 37.8276,33.3416 37.3133,33.3416 L35.5896,33.3416 Z M36.7273,29.0398 L37.0838,29.0398 C37.507,29.0398 37.8162,28.947 38.0115,28.7615 C38.2101,28.5727 38.3094,28.296 38.3094,27.9314 C38.3094,27.5766 38.2085,27.308 38.0066,27.1257 C37.8048,26.9402 37.5118,26.8474 37.1277,26.8474 L36.7273,26.8474 L36.7273,29.0398 Z M36.7273,32.2722 L37.4305,32.2722 C37.9448,32.2722 38.3224,32.1713 38.5633,31.9695 C38.8172,31.7514 38.9441,31.4747 38.9441,31.1394 C38.9441,30.8139 38.8221,30.5404 38.5779,30.3191 C38.3403,30.101 37.9155,29.9919 37.3035,29.9919 L36.7273,29.9919 L36.7273,32.2722 Z M43.6453,25.8025 L43.6453,32.2722 L45.8621,32.2722 L45.8621,33.3416 L42.5076,33.3416 L42.5076,25.8025 L43.6453,25.8025 Z M47.2527,29.5378 C47.2527,28.4766 47.6417,27.5652 48.4197,26.8035 C49.1945,26.0417 50.1255,25.6609 51.2127,25.6609 C52.2869,25.6609 53.2081,26.045 53.9764,26.8132 C54.7478,27.5815 55.1336,28.5043 55.1336,29.5818 C55.1336,30.6658 54.7462,31.5854 53.9715,32.3406 C53.1935,33.099 52.2544,33.4783 51.1541,33.4783 C50.1808,33.4783 49.3068,33.1414 48.532,32.4675 C47.6792,31.7221 47.2527,30.7455 47.2527,29.5378 Z M48.4002,29.5525 C48.4002,30.3858 48.6801,31.071 49.24,31.6082 C49.7967,32.1453 50.4396,32.4138 51.1687,32.4138 C51.9598,32.4138 52.6271,32.1404 53.1707,31.5935 C53.7143,31.0401 53.9861,30.3663 53.9861,29.572 C53.9861,28.768 53.7176,28.0942 53.1805,27.5505 C52.6466,27.0037 51.9858,26.7302 51.198,26.7302 C50.4135,26.7302 49.7511,27.0037 49.2107,27.5505 C48.6704,28.0909 48.4002,28.7582 48.4002,29.5525 Z M63.1355,26.2078 L63.1355,27.5554 C62.478,27.0053 61.7977,26.7302 61.0945,26.7302 C60.3198,26.7302 59.6671,27.0085 59.1365,27.5652 C58.6027,28.1186 58.3357,28.7957 58.3357,29.5964 C58.3357,30.3875 58.6027,31.0548 59.1365,31.5984 C59.6704,32.142 60.3247,32.4138 61.0994,32.4138 C61.4998,32.4138 61.84,32.3487 62.1199,32.2185 C62.2762,32.1534 62.4373,32.0655 62.6033,31.9548 C62.7726,31.8442 62.95,31.7107 63.1355,31.5544 L63.1355,32.9265 C62.4845,33.2944 61.8009,33.4783 61.0848,33.4783 C60.0073,33.4783 59.0877,33.1023 58.326,32.3503 C57.5675,31.5919 57.1883,30.6772 57.1883,29.6062 C57.1883,28.6459 57.5057,27.7898 58.1404,27.0378 C58.9217,26.1166 59.9324,25.656 61.1727,25.656 C61.8497,25.656 62.504,25.8399 63.1355,26.2078 Z M66.9285,28.8103 L69.8631,25.8025 L71.3816,25.8025 L67.9734,29.2156 L71.4012,33.3416 L69.8777,33.3416 L67.1629,29.9871 L66.9285,30.2214 L66.9285,33.3416 L65.7908,33.3416 L65.7908,25.8025 L66.9285,25.8025 L66.9285,28.8103 Z M78.5535,26.2078 L78.5535,27.5554 C77.896,27.0053 77.2156,26.7302 76.5125,26.7302 C75.7378,26.7302 75.0851,27.0085 74.5545,27.5652 C74.0206,28.1186 73.7537,28.7957 73.7537,29.5964 C73.7537,30.3875 74.0206,31.0548 74.5545,31.5984 C75.0883,32.142 75.7426,32.4138 76.5174,32.4138 C76.9178,32.4138 77.2579,32.3487 77.5379,32.2185 C77.6941,32.1534 77.8553,32.0655 78.0213,31.9548 C78.1906,31.8442 78.368,31.7107 78.5535,31.5544 L78.5535,32.9265 C77.9025,33.2944 77.2189,33.4783 76.5027,33.4783 C75.4253,33.4783 74.5057,33.1023 73.7439,32.3503 C72.9855,31.5919 72.6062,30.6772 72.6062,29.6062 C72.6062,28.6459 72.9236,27.7898 73.5584,27.0378 C74.3396,26.1166 75.3504,25.656 76.5906,25.656 C77.2677,25.656 77.922,25.8399 78.5535,26.2078 Z M82.3465,28.7517 L85.5984,28.7517 L85.5984,25.8025 L86.7361,25.8025 L86.7361,33.3416 L85.5984,33.3416 L85.5984,29.821 L82.3465,29.821 L82.3465,33.3416 L81.2088,33.3416 L81.2088,25.8025 L82.3465,25.8025 L82.3465,28.7517 Z M93.9715,31.5105 L90.7439,31.5105 L89.9041,33.3416 L88.6785,33.3416 L92.409,25.3289 L96.0076,33.3416 L94.7625,33.3416 L93.9715,31.5105 Z M93.5076,30.4412 L92.3895,27.8777 L91.2176,30.4412 L93.5076,30.4412 Z M99.0926,25.8025 L99.0926,33.3416 L97.9549,33.3416 L97.9549,25.8025 L99.0926,25.8025 Z M101.904,33.3416 L101.904,25.2898 L107.402,31.0417 L107.402,25.8025 L108.54,25.8025 L108.54,33.8005 L103.042,28.0632 L103.042,33.3416 L101.904,33.3416 Z M45.3641,41.4158 L48.4793,41.4158 L48.4793,41.6648 C48.4793,42.2312 48.4126,42.7325 48.2791,43.1687 C48.1489,43.5723 47.9292,43.95 47.6199,44.3015 C46.92,45.0893 46.0297,45.4832 44.949,45.4832 C43.8943,45.4832 42.991,45.1023 42.2391,44.3406 C41.4871,43.5756 41.1111,42.6576 41.1111,41.5867 C41.1111,40.4929 41.4936,39.5652 42.2586,38.8035 C43.0236,38.0385 43.9546,37.656 45.0516,37.656 C45.6408,37.656 46.1909,37.7764 46.702,38.0173 C47.1902,38.2582 47.6704,38.6488 48.1424,39.1892 L47.3318,39.9656 C46.7133,39.142 45.9598,38.7302 45.0711,38.7302 C44.2736,38.7302 43.6046,39.0053 43.0643,39.5554 C42.5239,40.0958 42.2537,40.7729 42.2537,41.5867 C42.2537,42.4265 42.5548,43.1182 43.157,43.6619 C43.7202,44.1664 44.3305,44.4187 44.9881,44.4187 C45.548,44.4187 46.0509,44.2299 46.4969,43.8523 C46.9428,43.4714 47.1919,43.0157 47.2439,42.4851 L45.3641,42.4851 L45.3641,41.4158 Z M55.0018,43.5105 L51.7742,43.5105 L50.9344,45.3416 L49.7088,45.3416 L53.4393,37.3289 L57.0379,45.3416 L55.7928,45.3416 L55.0018,43.5105 Z M54.5379,42.4412 L53.4197,39.8777 L52.2478,42.4412 L54.5379,42.4412 Z M58.7215,45.3416 L60.3084,37.2361 L62.8963,43.0955 L65.577,37.2361 L67.0027,45.3416 L65.8357,45.3416 L65.1082,40.7908 L62.8768,45.6882 L60.7088,40.7859 L59.8982,45.3416 L58.7215,45.3416 Z M73.7645,38.8718 L70.742,38.8718 L70.742,40.6833 L73.6766,40.6833 L73.6766,41.7527 L70.742,41.7527 L70.742,44.2722 L73.7645,44.2722 L73.7645,45.3416 L69.6043,45.3416 L69.6043,37.8025 L73.7645,37.8025 L73.7645,38.8718 Z M80.5213,38.9255 L79.5984,39.4724 C79.4259,39.1729 79.2615,38.9776 79.1053,38.8865 C78.9425,38.7823 78.7325,38.7302 78.4754,38.7302 C78.1596,38.7302 77.8976,38.8197 77.6893,38.9988 C77.4809,39.1746 77.3768,39.3959 77.3768,39.6628 C77.3768,40.0307 77.6502,40.3269 78.1971,40.5515 L78.949,40.8591 C79.561,41.1065 80.0086,41.4093 80.2918,41.7673 C80.575,42.1222 80.7166,42.5583 80.7166,43.0759 C80.7166,43.7693 80.4855,44.3422 80.0232,44.7947 C79.5577,45.2504 78.9799,45.4783 78.2898,45.4783 C77.6355,45.4783 77.0952,45.2846 76.6687,44.8972 C76.2488,44.5098 75.9868,43.9646 75.8826,43.2615 L77.035,43.0076 C77.087,43.4503 77.1782,43.7563 77.3084,43.9255 C77.5428,44.2511 77.8846,44.4138 78.3338,44.4138 C78.6886,44.4138 78.9832,44.295 79.2176,44.0574 C79.452,43.8197 79.5691,43.5186 79.5691,43.1541 C79.5691,43.0076 79.548,42.8741 79.5057,42.7537 C79.4666,42.63 79.4031,42.5177 79.3152,42.4167 C79.2306,42.3126 79.1199,42.2166 78.9832,42.1287 C78.8465,42.0375 78.6837,41.9513 78.4949,41.8699 L77.7674,41.5671 C76.7355,41.1309 76.2195,40.4929 76.2195,39.6531 C76.2195,39.0867 76.436,38.613 76.8689,38.2322 C77.3019,37.8481 77.8406,37.656 78.4852,37.656 C79.3543,37.656 80.033,38.0792 80.5213,38.9255 Z" id="Shape" fill="#FFFFFF" fill-rule="nonzero"></path>
        </g>
    </g>
</svg>