<svg fill="none" height="120" viewBox="0 0 120 120" width="120" xmlns="http://www.w3.org/2000/svg" xmlns:xlink="http://www.w3.org/1999/xlink"><linearGradient id="a"><stop offset="0" stop-color="#011b3e"/><stop offset="1" stop-color="#000f24"/></linearGradient><linearGradient id="b" gradientUnits="userSpaceOnUse" x1="14.9644" x2="14.9644" xlink:href="#a" y1="59.5215" y2="47.8405"/><linearGradient id="c" gradientUnits="userSpaceOnUse" x1="104.338" x2="104.338" xlink:href="#a" y1="59.5215" y2="47.8405"/><linearGradient id="d" gradientUnits="userSpaceOnUse" x1="59.5681" x2="59.5681" y1="114.155" y2="8.79835"><stop offset=".28125" stop-color="#011b3e"/><stop offset=".942708" stop-color="#000f24"/></linearGradient><linearGradient id="e" gradientUnits="userSpaceOnUse" x1="59.6514" x2="59.6514" y1="115.008" y2="5"><stop offset=".0625" stop-color="#7c6341"/><stop offset=".546875" stop-color="#a78c68"/><stop offset=".984375" stop-color="#b0936d"/></linearGradient><path d="m5.47357 47.8408h-3.41559l10.81892 10.8189c1.1527 1.1528 3.0227 1.1528 4.1755 0l10.8189-10.8189h-12.6889z" fill="url(#b)"/><path d="m113.825 47.8408h-9.709-12.6806l10.8186 10.8189c1.153 1.1528 3.023 1.1528 4.176 0l10.819-10.8189z" fill="url(#c)"/><path d="m88.7373 41.5894h3.8511 2.8691c.9735 0 1.9127-.0256 2.8776-.1707 1.3236-.205 2.6299-.5551 3.8769-1.0503 1.255-.4953 2.451-1.1357 3.552-1.9128 1.144-.8112 2.195-1.759 3.117-2.8093.999-1.1442 1.861-2.408 2.579-3.7401.802-1.4943 1.434-3.0825 1.929-4.7049.564-1.8615.931-3.7742 1.17-5.7041.273-2.2201.35-4.4573.299-6.6945-.043-2.0664-.324-4.0731-.794-6.0029 0 .00854 0 .01708-.009.02562-3.202 13.92708-11.194 21.09128-17.1971 21.49258l-24.4044.0769.0427.0426h-2.9203-8.3426-3.3387-8.3426-2.4507l.0427-.0426-24.8825-.0769c-5.9858-.4013-13.9783-7.5655-17.18042-21.49258 0-.00854 0-.01708-.00853-.02562-.46965 1.9213-.74289 3.9279-.79413 5.9944-.05123 2.2372.03416 4.4744.29887 6.6945.23055 1.9298.60626 3.8425 1.16983 5.704.48673 1.6224 1.11861 3.2107 1.92981 4.705.71727 1.3406 1.57971 2.6044 2.57877 3.7401.9222 1.0588 1.9725 2.0066 3.1167 2.8093 1.1015.777 2.297 1.4175 3.5522 1.9127 1.2467.4953 2.5532.8368 3.8767 1.0503.9735.1537 1.9042.1708 2.8777.1708h2.869 3.8511 3.7145l-6.0029 6.0114v.2647 26.7441c.4696-.0427.9478-.0683 1.4345-.0683 7.8986 0 14.3028 6.4042 14.3028 14.3027 0 .2904-.0085.5807-.0256.871 0 .0427-.0086.0939-.0086.1366-.017.2477-.0427.4953-.0683.7429 0 .0256-.0085.0513-.0085.0769-.0342.2647-.0769.5379-.1281.7941v.0171c-.0512.2818-.111.555-.1793.8368-.2306.9307-.555 1.8273-.9564 2.6727-.7429 1.3833-.5294 3.1423.6404 4.3122l13.7905 13.7902c.7429.743 1.7248 1.093 2.6983 1.068.9734.025 1.9554-.325 2.6983-1.068l13.7904-13.7902c1.1699-1.1699 1.3833-2.9289.6405-4.3122-.4014-.8454-.7259-1.742-.9564-2.6727-.0683-.2733-.1281-.555-.1793-.8368 0-.0086 0-.0086 0-.0171-.0513-.2647-.094-.5294-.1281-.7941 0-.0256-.0085-.0513-.0085-.0769-.0342-.2476-.0513-.4952-.0684-.7429 0-.0427-.0085-.0939-.0085-.1366-.0171-.2903-.0256-.5806-.0256-.871 0-7.8985 6.4042-14.3027 14.3028-14.3027.4867 0 .9563.0256 1.4345.0683v-26.7355-.2647l-6.0029-6.0115z" fill="url(#d)"/><path d="m91.6316 46.9861-4.5341-4.5427h8.3596c.8881 0 1.9298-.0171 3.0143-.1879 1.4089-.222 2.7756-.5892 4.0556-1.1015 1.324-.5209 2.579-1.1955 3.732-2.0067 1.187-.8368 2.288-1.8273 3.27-2.9459 1.008-1.1528 1.913-2.4678 2.69-3.9023.794-1.4773 1.469-3.1167 1.99-4.8672.546-1.8103.947-3.7743 1.195-5.8407.256-2.1347.359-4.4232.308-6.8141-.043-2.0664-.325-4.1499-.82-6.1822l-.863-3.47535-.811 3.51805c-3.023 13.1585-10.545 20.4423-16.3605 20.8265l-25.0277.0769.0427.0427h-24.6093l.0427-.0427-24.968-.0769c-5.8748-.3842-13.40614-7.668-16.42894-20.84358l-.78558-3.62052-.87951 3.5949c-.49526 2.0323-.76851 4.1158-.81974 6.1822-.05124 2.3909.05123 4.6879.3074 6.8141.24763 2.075.6575 4.0389 1.19545 5.8407.52942 1.7505 1.19546 3.3814 1.98958 4.8672.76851 1.4345 1.67364 2.7495 2.68978 3.9023.98196 1.1186 2.08346 2.1091 3.27046 2.9459 1.1527.8112 2.4079 1.4858 3.7315 2.0067 1.2808.5038 2.6471.8795 4.056 1.1015 1.0844.1708 2.1262.1879 3.0143.1879h8.3681l-4.5427 4.5427h-27.504l12.2705 12.279c.7429.7429 1.7163 1.1101 2.6898 1.1101.9734 0 1.9469-.3672 2.6897-1.1101l9.5978-9.6063v25.8901l.9393-.0939c.4526-.0427.9052-.0683 1.3492-.0683 7.4203 0 13.4489 6.037 13.4489 13.4489 0 .444-.0342.8795-.0684 1.315-.0085.0939-.017.1793-.0256.2732-.0427.3757-.111.7429-.1878 1.1101-.0342.1537-.0598.3074-.1025.4611-.2135.888-.5123 1.7505-.9051 2.5788-.9393 1.7675-.6234 3.9023.7941 5.3197l13.7904 13.7905c.8539.854 1.9811 1.315 3.1424 1.315h.128c1.2638.026 2.4422-.427 3.3217-1.315l13.7904-13.7905c1.4175-1.4174 1.7335-3.5522.8112-5.2856-.4013-.8539-.7087-1.7334-.9222-2.63-.0341-.1451-.0683-.2903-.0939-.4355-.0768-.3757-.1452-.7429-.1879-1.1271-.0085-.094-.017-.1793-.0256-.2733-.0427-.4355-.0683-.8709-.0683-1.315 0-7.4203 6.0371-13.4488 13.4489-13.4488.444 0 .8966.0256 1.3491.0683l.9393.0939v-26.0438l9.7516 9.7515c.743.7428 1.716 1.11 2.69 1.11.973 0 1.947-.3672 2.689-1.11l12.28-12.2791h-27.6924zm-75.1856 11.0665c-.8197.8197-2.1518.8197-2.963 0l-9.35868-9.3587h21.68048zm80.4713-26.8807c5.7377-.3842 13.1327-6.3017 16.9587-18.4185.068.6916.111 1.3833.128 2.0664.051 2.3055-.051 4.5171-.299 6.575-.239 1.9725-.623 3.8425-1.136 5.5589-.495 1.6395-1.118 3.1679-1.861 4.5513-.709 1.3235-1.537 2.5275-2.468 3.5863-.888 1.0162-1.887 1.9213-2.963 2.6727-1.042.7344-2.178 1.3492-3.373 1.8188-1.17.4611-2.408.7941-3.6974.9991-.8624.1366-1.7248.1622-2.7495.1622h-10.0333l-9.4868-9.5039zm-73.2387 9.5637c-1.0247 0-1.8786-.0256-2.7496-.1623-1.2808-.2049-2.5275-.5379-3.6974-.999-1.1954-.4697-2.3311-1.0845-3.3729-1.8188-1.0759-.76-2.0749-1.6566-2.963-2.6727-.92219-1.0589-1.75901-2.2628-2.46774-3.5864-.74289-1.3748-1.36624-2.9032-1.8615-4.5513-.51233-1.7077-.89659-3.5778-1.13568-5.5588-.24763-2.0494-.35009-4.261-.29886-6.575.01708-.6831.05977-1.3748.12808-2.0579 3.81692 12.1082 11.2202 18.0343 17.0096 18.4185l20.9205.0683-9.4783 9.4954zm5.8577 32.9518c-.1879 0-.3843 0-.5807.0086v-25.0021h.1025c13.0646 0 23.6956 10.631 23.6956 23.7042 0 6.8568-3.0057 13.3805-8.1376 17.8635.0427-.4697.0683-.9393.0683-1.4175.0085-8.3596-6.7885-15.1567-15.1481-15.1567zm32.1321 38.7926c-.5465.546-1.2808.845-2.1177.82-.777.025-1.5199-.265-2.0664-.82l-8.4792-8.479h21.1425zm13.7819-13.7819-3.5949 3.5949h-24.5666l-3.5949-3.5949c-.8795-.8795-1.0759-2.2116-.4782-3.3388.3928-.8197.6831-1.6651.9137-2.5275 6.4725-4.7818 10.3321-12.3986 10.3321-20.4337 0-13.7222-10.9384-24.9338-24.558-25.3864l.0256-.0256 15.669-15.6946h27.9395l15.6946 15.7202c-13.6197.4526-24.5581 11.6642-24.5581 25.3864 0 8.0351 3.8596 15.6519 10.3322 20.4337.2391.871.5379 1.7249.9307 2.5617.5892 1.093.3928 2.4251-.4867 3.3046zm14.7383-25.0021c-8.6586-.3416-15.7374 6.6006-15.7374 15.1481 0 .4697.0257.9393.0684 1.4175-5.132-4.483-8.1377-11.0067-8.1377-17.8635 0-13.0647 10.631-23.7042 23.7042-23.7042h.1025zm15.6344-15.6434c-.819.8197-2.151.8197-2.963 0l-9.3583-9.3587h21.6803z" fill="url(#e)"/><path d="m51.5413 92.7554h-.1451c-.8283 0-1.5029.6745-1.5029 1.4943v2.4763c0 1.6395 1.3321 2.9801 2.9801 2.9801h2.3311c.9052 0 1.6395-.7344 1.6395-1.6395.0086-2.9289-2.3738-5.3112-5.3027-5.3112zm1.3321 5.2429c-.7002 0-1.2723-.5721-1.2723-1.2723v-2.2628c1.9383.0341 3.501 1.6053 3.5351 3.5351z" fill="#856c49"/><path d="m67.7481 92.7554h-.1451c-2.9289 0-5.3113 2.3823-5.3113 5.3112 0 .9051.7344 1.6395 1.6395 1.6395h2.3312c1.6395 0 2.9801-1.3321 2.9801-2.9801v-2.4763c.0085-.8198-.6661-1.4943-1.4944-1.4943zm-.2049 3.9791c0 .7002-.5721 1.2723-1.2723 1.2723h-2.2628c.0341-1.9298 1.6053-3.5009 3.5351-3.5351z" fill="#856c49"/><g fill="#a18662"><path d="m46.1871 66.079c0-4.5257-3.6803-8.206-8.2059-8.206h-.2306c-1.0588 0-1.9213.8625-1.9213 1.9213v4.0816c0 2.3995 1.9555 4.3549 4.3549 4.3549h3.8511c1.1869 0 2.1518-.9649 2.1518-2.1518zm-2.1518.444h-3.8511c-1.4601 0-2.6471-1.1869-2.6471-2.6471v-4.0816c0-.1195.094-.2135.2135-.2135h.2306c3.5778 0 6.4981 2.9118 6.4981 6.4982 0 .2476-.1964.444-.444.444z"/><path d="m81.3935 57.8818h-.2305c-4.5257 0-8.206 3.6803-8.206 8.206 0 1.1869.9649 2.1518 2.1518 2.1518h3.8511c2.3995 0 4.3549-1.9554 4.3549-4.3549v-4.0816c0-1.0588-.8624-1.9213-1.9213-1.9213zm.2135 5.9944c0 1.4602-1.1869 2.6471-2.6471 2.6471h-3.8511c-.2476 0-.444-.1964-.444-.4441 0-3.5778 2.9118-6.4981 6.4982-6.4981h.2305c.1196 0 .2135.0939.2135.2135z"/></g></svg>